<svg xmlns="http://www.w3.org/2000/svg" viewBox="-25.78 -14.159 50.78 60.7">
  <path d="M -18.78 33.3 C -18.78 33.3 -11.07 33.3 -11.07 33.3 C -11.07 33.3 -11.07 5.47 -11.07 5.47 C -11.07 5.47 -18.78 5.47 -18.78 5.47 C -18.78 5.47 -18.78 33.3 -18.78 33.3 z M -18.78 2.241 C -18.78 2.241 -11.07 2.241 -11.07 2.241 C -11.07 2.241 -11.07 -4.159 -11.07 -4.159 C -11.07 -4.159 -18.78 -4.159 -18.78 -4.159 C -18.78 -4.159 -18.78 2.241 -18.78 2.241 z Z Z" stroke="black" stroke-width="0.1" fill="black"/>\
 
  <path d="
 M-0.5609999895095825,26.48900032043457 C-0.5609999895095825,26.48900032043457 -0.5609999895095825,12.456999778747559 -0.5609999895095825,12.456999778747559 C-0.5609999895095825,12.456999778747559 9.968999862670898,12.456999778747559 9.968999862670898,12.456999778747559 C9.968999862670898,12.456999778747559 9.968999862670898,26.48900032043457 9.968999862670898,26.48900032043457 C9.968999862670898,26.48900032043457 -0.5609999895095825,26.48900032043457 -0.5609999895095825,26.48900032043457z M-0.7329999804496765,33.53499984741211 C4.906000137329102,33.53499984741211 9.854000091552734,31.06800079345703 9.968999862670898,30.951000213623047 C9.968999862670898,30.951000213623047 10.256999969482422,33.29999923706055 10.256999969482422,33.29999923706055 C10.256999969482422,33.29999923706055 17.679000854492188,33.29999923706055 17.679000854492188,33.29999923706055 C17.679000854492188,33.29999923706055 17.679000854492188,-6.15500020980835 17.679000854492188,-6.15500020980835 C17.679000854492188,-6.15500020980835 9.968999862670898,-6.15500020980835 9.968999862670898,-6.15500020980835 C9.968999862670898,-6.15500020980835 9.968999862670898,7.876999855041504 9.968999862670898,7.876999855041504 C7.552000045776367,6.4679999351501465 3.2950000762939453,5.235000133514404 -0.7329999804496765,5.235000133514404 C-6.314000129699707,5.235000133514404 -8.213000297546387,7.876999855041504 -8.213000297546387,11.987000465393066 C-8.213000297546387,11.987000465393066 -8.213000297546387,26.899999618530273 -8.213000297546387,26.899999618530273 C-8.213000297546387,30.833999633789062 -6.142000198364258,33.53499984741211 -0.7329999804496765,33.53499984741211z" stroke="black" stroke-width="0.1" fill="black"/>\

</svg>