<svg id="Layer_1" data-name="Layer 1" xmlns="http://www.w3.org/2000/svg" xmlns:xlink="http://www.w3.org/1999/xlink" viewBox="0 0 482.74 511.54"><defs><style>.cls-1,.cls-10,.cls-11,.cls-12,.cls-13,.cls-14,.cls-15,.cls-16,.cls-17,.cls-2,.cls-3,.cls-4,.cls-5,.cls-6,.cls-7,.cls-8,.cls-9{fill-rule:evenodd;}.cls-1{fill:url(#GradientFill_1);}.cls-2{fill:url(#GradientFill_2);}.cls-3{fill:url(#GradientFill_3);}.cls-4{fill:url(#GradientFill_3-2);}.cls-5{fill:url(#GradientFill_4);}.cls-6{fill:#9e9f9f;}.cls-7{fill:url(#GradientFill_5);}.cls-8{fill:#960c00;}.cls-9{fill:url(#GradientFill_6);}.cls-10{fill:url(#GradientFill_2-2);}.cls-11{fill:url(#GradientFill_7);}.cls-12{fill:url(#GradientFill_7-2);}.cls-13{fill:url(#GradientFill_6-2);}.cls-14{fill:#004189;}.cls-15{fill:#dc2e33;}.cls-16,.cls-17{opacity:0.25;}.cls-16{fill:url(#GradientFill_8);}.cls-17{fill:url(#GradientFill_8-2);}.cls-18{fill:#625b52;}</style><linearGradient id="GradientFill_1" x1="351.17" y1="-16.03" x2="313.65" y2="39.81" gradientUnits="userSpaceOnUse"><stop offset="0" stop-color="#d1050c"/><stop offset="0.93" stop-color="#af0b05"/><stop offset="1" stop-color="#af0b05"/></linearGradient><linearGradient id="GradientFill_2" x1="66.21" y1="68.57" x2="129.77" y2="73.7" gradientUnits="userSpaceOnUse"><stop offset="0" stop-color="#ed6f09"/><stop offset="1" stop-color="#bb3206"/></linearGradient><linearGradient id="GradientFill_3" x1="386.16" y1="208.77" x2="315.19" y2="36.27" gradientUnits="userSpaceOnUse"><stop offset="0" stop-color="#fff041"/><stop offset="0.01" stop-color="#fff041"/><stop offset="1" stop-color="#ea5829"/></linearGradient><linearGradient id="GradientFill_3-2" x1="113.1" y1="74.44" x2="322.43" y2="39.99" xlink:href="#GradientFill_3"/><linearGradient id="GradientFill_4" x1="208.44" y1="266.53" x2="271.38" y2="81.78" gradientUnits="userSpaceOnUse"><stop offset="0" stop-color="#f4f3f4"/><stop offset="0.23" stop-color="#f2f2f2"/><stop offset="0.84" stop-color="#9d9c9c"/><stop offset="1" stop-color="#484848"/></linearGradient><linearGradient id="GradientFill_5" x1="271.62" y1="104.66" x2="314.36" y2="9.04" gradientUnits="userSpaceOnUse"><stop offset="0" stop-color="#fffacb"/><stop offset="0.03" stop-color="#fffacb"/><stop offset="0.23" stop-color="#ffe18e"/><stop offset="0.84" stop-color="#e3000f"/><stop offset="1" stop-color="#e3000f"/></linearGradient><linearGradient id="GradientFill_6" x1="276.86" y1="367.8" x2="335.53" y2="218.92" gradientUnits="userSpaceOnUse"><stop offset="0" stop-color="#e52e0e"/><stop offset="0.91" stop-color="#9a2a00"/><stop offset="1" stop-color="#9a2a00"/></linearGradient><linearGradient id="GradientFill_2-2" x1="353.95" y1="233.84" x2="420.64" y2="239.22" xlink:href="#GradientFill_2"/><linearGradient id="GradientFill_7" x1="129.54" y1="343.15" x2="253.81" y2="353.17" gradientUnits="userSpaceOnUse"><stop offset="0" stop-color="#ed6f09"/><stop offset="1" stop-color="#ad3302"/></linearGradient><linearGradient id="GradientFill_7-2" x1="100.8" y1="417.71" x2="96.47" y2="232.12" xlink:href="#GradientFill_7"/><linearGradient id="GradientFill_6-2" x1="62.24" y1="283.19" x2="120.9" y2="134.33" xlink:href="#GradientFill_6"/><linearGradient id="GradientFill_8" x1="169.01" y1="203.74" x2="177.98" y2="131.3" gradientUnits="userSpaceOnUse"><stop offset="0" stop-color="#ed6f09"/><stop offset="0.27" stop-color="#ed6f09"/><stop offset="0.61" stop-color="#d8370c"/><stop offset="1" stop-color="#d8370c"/></linearGradient><linearGradient id="GradientFill_8-2" x1="239.65" y1="252.55" x2="292.2" y2="215.17" xlink:href="#GradientFill_8"/></defs><title>telosuk logo final portrait v2 small text 5</title><polygon class="cls-1" points="281.77 32.74 315.23 33.7 337.23 65.1 372.24 0.57 299.83 0 281.77 32.74"/><polygon class="cls-2" points="61.02 82.13 74.99 112.92 126.2 117.97 116.77 28.09 61.02 82.13"/><polygon class="cls-3" points="350.42 239.49 350.42 239.51 350.47 239.58 429.77 197.17 337.23 65.1 335.36 68.55 337.23 65.1 315.23 33.7 350.42 239.49"/><polygon class="cls-4" points="116.77 28.09 126.2 117.97 126.57 118.01 315.23 33.7 281.77 32.74 279.99 35.98 281.77 32.74 116.82 28.03 116.77 28.09"/><polygon class="cls-5" points="123.14 220.1 117.75 398.76 265.6 297.56 350.47 239.58 263.41 131.51 126.2 117.97 123.14 220.1"/><polygon class="cls-6" points="126.57 118.01 126.2 117.97 126.21 118.05 126.21 118.23 126.33 118.12 126.57 118.01"/><polygon class="cls-7" points="126.57 118.01 231.74 128.38 263.41 131.51 283.02 155.85 350.42 239.51 350.42 239.49 315.23 33.7 126.57 118.01"/><polygon class="cls-6" points="350.4 239.62 350.47 239.58 350.42 239.51 350.4 239.62"/><polygon class="cls-8" points="350.4 239.62 341.96 284.95 382.14 278.9 350.47 239.58 350.4 239.62"/><polygon class="cls-9" points="349.66 240.02 265.6 297.56 257.08 366.84 257.25 366.79 337.3 313.27 341.96 284.95 350.4 239.62 349.66 240.02"/><polygon class="cls-10" points="350.47 239.58 382.14 278.9 414.63 274.01 429.84 197.27 429.77 197.17 350.47 239.58"/><polygon class="cls-11" points="117.75 398.76 257.08 366.84 265.6 297.56 117.75 398.76"/><polygon class="cls-12" points="70.27 264.75 117.75 398.76 123.14 220.1 70.27 264.75"/><polygon class="cls-13" points="91.69 149.76 71.24 168.89 70.25 264.69 70.27 264.75 123.14 220.1 126.21 118.23 91.69 149.76"/><polygon class="cls-8" points="126.21 118.05 126.21 117.97 74.98 112.92 91.69 149.76 126.21 118.23 126.21 118.05"/><polygon class="cls-14" points="157.46 371.58 195.32 345.67 119.27 348.48 118.58 371.39 157.46 371.58"/><polygon class="cls-14" points="121.03 289.95 199.33 286.93 122.41 244.34 121.03 289.95"/><polygon class="cls-14" points="125.8 131.93 249.36 200.27 197.4 125 126.21 118.23 125.8 131.93"/><path class="cls-15" d="M394.1,314.45,307,191l-11.74-1.34L282,188.38,377.6,325.72l16.5-11.27ZM188.53,217.81,374.47,321.23l3.13,4.49-48.52,33.14L186.63,281.41Z" transform="translate(-63.49 -61.3)"/><polygon class="cls-15" points="119.73 333.31 219.78 328.92 249.95 308.27 120.32 313.73 119.73 333.31"/><polygon class="cls-16" points="126.34 118.12 126.21 118.23 123.14 220.1 231.74 128.38 126.57 118.01 126.34 118.12"/><polygon class="cls-17" points="265.6 297.56 349.66 240.02 350.4 239.62 350.42 239.51 283.02 155.85 265.6 297.56"/><path class="cls-18" d="M90.3,572V503H63.49v-5.72h60V503H96.76v69Z" transform="translate(-63.49 -61.3)"/><path class="cls-18" d="M167.56,547.09H128.67q.32,9.64,5.08,14.79T147.32,567a25.45,25.45,0,0,0,16.85-6.35l2.54,5.08a24.86,24.86,0,0,1-8.63,5.09,31.34,31.34,0,0,1-10.76,1.91q-11.76,0-18.55-7.1T122,546.14a31.33,31.33,0,0,1,3-14,22.46,22.46,0,0,1,8.48-9.43,23.63,23.63,0,0,1,12.56-3.34q10.06,0,15.79,6.57t5.72,18.34Zm-33.38-17.8q-4.45,4.66-5.3,13h32.75q-.23-8.48-4.24-13.09t-11.34-4.61Q138.63,524.62,134.18,529.29Z" transform="translate(-63.49 -61.3)"/><path class="cls-18" d="M181,572V497.28h6.46V572Z" transform="translate(-63.49 -61.3)"/><path class="cls-18" d="M212.55,569.45a22,22,0,0,1-8.32-9.32,35,35,0,0,1,0-28.2,22,22,0,0,1,8.32-9.32,25.11,25.11,0,0,1,24.85,0,21.63,21.63,0,0,1,8.32,9.32,35.61,35.61,0,0,1,0,28.2,21.63,21.63,0,0,1-8.32,9.32,25.11,25.11,0,0,1-24.85,0Zm25-7.84Q242,556.21,242,546q0-10-4.51-15.53T225,524.94q-8.06,0-12.51,5.56T208,546q0,10.17,4.35,15.58t12.5,5.4Q233.05,567,237.51,561.61Z" transform="translate(-63.49 -61.3)"/><path class="cls-18" d="M259.13,565.85l2.43-5a27.13,27.13,0,0,0,8.27,4.82,29.27,29.27,0,0,0,9.54,1.43c4.17,0,7.36-.74,9.59-2.22a7.65,7.65,0,0,0,1.11-11.72c-1.48-1.37-3.85-2.42-7.1-3.12l-8.69-2a19.46,19.46,0,0,1-9.8-5.14,12,12,0,0,1-3.55-8.63,13.16,13.16,0,0,1,5.19-10.81q5.19-4.14,13.88-4.14a29.06,29.06,0,0,1,10.13,1.75,20.07,20.07,0,0,1,7.79,5l-2.44,5a25.18,25.18,0,0,0-7.37-4.67,22.09,22.09,0,0,0-8.11-1.48q-5.82,0-9.11,2.33a8.16,8.16,0,0,0-1.22,12,13.24,13.24,0,0,0,6.41,3.18l8.8,2.12q14,3.18,14,13.77a12.39,12.39,0,0,1-5.35,10.5q-5.36,3.91-14.47,3.92Q266.87,572.74,259.13,565.85Z" transform="translate(-63.49 -61.3)"/><path class="cls-18" d="M321,565.32q-7.38-7.53-7.37-22.15V497.28h6.57v46.63q0,23.1,22.47,23.1,11.13,0,16.8-5.82t5.67-17.28V497.28h6.46v45.89q0,14.63-7.36,22.15t-21.57,7.52Q328.33,572.84,321,565.32Z" transform="translate(-63.49 -61.3)"/><path class="cls-18" d="M446,572h-8.8L397,536.28V572h-6.57V497.28H397v34.65l38.15-34.65h8.59l-40.38,36.46Z" transform="translate(-63.49 -61.3)"/><path class="cls-18" d="M454,562.88h9V572h-9Z" transform="translate(-63.49 -61.3)"/><path class="cls-18" d="M477.66,498.87h8.47V507h-8.47Zm.95,73.13V520.59h6.47V572Z" transform="translate(-63.49 -61.3)"/><path class="cls-18" d="M510.14,569.45a22.08,22.08,0,0,1-8.32-9.32,35,35,0,0,1,0-28.2,22.08,22.08,0,0,1,8.32-9.32,25.11,25.11,0,0,1,24.85,0,21.63,21.63,0,0,1,8.32,9.32,35.5,35.5,0,0,1,0,28.2,21.63,21.63,0,0,1-8.32,9.32,25.11,25.11,0,0,1-24.85,0Zm25-7.84q4.44-5.4,4.45-15.58,0-10-4.51-15.53t-12.45-5.56q-8.05,0-12.5,5.56T505.63,546q0,10.17,4.35,15.58c2.9,3.6,7.06,5.4,12.51,5.4S532.13,565.21,535.1,561.61Z" transform="translate(-63.49 -61.3)"/></svg>